<svg xmlns="http://www.w3.org/2000/svg" width="1200" height="900" viewBox="0 0 1200 900" role="img" aria-labelledby="title">
  <title id="title">Abstract Nebraska grid</title>
  <rect width="1200" height="900" fill="#f6efe3"/>
  <path d="M176 238h640l54 96-30 208 78 84-92 92H198l-48-88 46-138-58-118 38-136Z" fill="#151719" opacity=".9"/>
  <path d="M214 282h560l38 68-28 178 70 76-56 56H230l-32-58 42-112-52-104 26-104Z" fill="#fbf8f2"/>
  <g fill="none" stroke="#151719" stroke-width="8" opacity=".9">
    <path d="M280 358h430"/>
    <path d="M256 438h510"/>
    <path d="M248 518h500"/>
    <path d="M258 598h476"/>
    <path d="M348 310v318"/>
    <path d="M476 310v350"/>
    <path d="M604 310v350"/>
    <path d="M732 346v258"/>
  </g>
  <g>
    <circle cx="476" cy="438" r="24" fill="#d8252f"/>
    <circle cx="604" cy="518" r="24" fill="#168a72"/>
    <circle cx="732" cy="598" r="24" fill="#1768ac"/>
    <circle cx="348" cy="358" r="24" fill="#f0b429"/>
  </g>
  <path d="M220 742c110 34 224 52 344 52 158 0 302-30 432-90" fill="none" stroke="#151719" stroke-linecap="round" stroke-width="28" opacity=".18"/>
</svg>
